# xmcd
#
# Track frame offsets:
#	150
#	3685
#	32080
#	55850
#	72657
#	94505
#	123627
#	143925
#	173770
#	195720
#	218035
#	237900
#	260582
#
# Disc length: 3658 seconds
#
# Revision: 1
# Processed by: cddbd v1.5.1PL2 Copyright (c) Steve Scherf et al.
# Submitted via: audiograbber 1.83.01
#
DISCID=c00e480d
DTITLE=Mary Lou Williams - Live At The Keystone Korner
DYEAR=1977
DGENRE=Jazz
TTITLE0=Spoken Commentary By Mary Lou Williams
TTITLE1=The History Of Jazz According To Mary Lou
TTITLE2=A Night In Tunisia
TTITLE3=The Jeep Is Jumpin'
TTITLE4=It Ain't Necessarily So
TTITLE5=Gloria
TTITLE6=I Can't Get Started
TTITLE7=Mary Lou's Blues
TTITLE8=St. Louis Blues
TTITLE9=Stormy Weather
TTITLE10=Roll 'Em
TTITLE11='Round Midnight
TTITLE12=Surrey With The Fringe On Top
EXTD=Mary Lou Williams - piano\nLarry Gales - bass\nEddie Marshall - drums\n\nr
EXTD=ec. May 8, 1977
EXTT0=
EXTT1=
EXTT2=
EXTT3=
EXTT4=
EXTT5=
EXTT6=
EXTT7=
EXTT8=
EXTT9=
EXTT10=
EXTT11=
EXTT12=
PLAYORDER=
